<?xml version="1.0" encoding="utf-8"?>
<!-- Generator: Adobe Illustrator 25.2.3, SVG Export Plug-In . SVG Version: 6.00 Build 0)  -->
<svg version="1.1" id="Layer_1" xmlns="http://www.w3.org/2000/svg" xmlns:xlink="http://www.w3.org/1999/xlink" x="0px" y="0px"
	 viewBox="0 0 43.7 10" style="enable-background:new 0 0 43.7 10;" xml:space="preserve">
<style type="text/css">
	.st0{fill:#2A3251;}
</style>
<path id="Path_4738_1_" class="st0" d="M42.1,1.3C38.7,4.2,34.9,6.5,30.7,8c0,0,0,0,0,0c-6.9,2-14.3,1.8-21.1-0.5
	C7.2,6.7,5,5.7,2.9,4.6C1.6,4,1.2,2.7,1.7,1.7c0.6-1,2-1.2,3.2-0.4C5,1.3,5,1.3,5.1,1.4c4,2.7,8.6,4.5,13.4,5.1
	C26.7,7.6,36,4.3,41.8,0.8c0.2-0.1,0.4,0,0.5,0.1C42.3,1,42.3,1.2,42.1,1.3z"/>
</svg>
